# xmcd CD database file
#
# Track frame offsets:
#	150
#	13771
#	31671
#	52670
#	64737
#	82051
#	99555
#	117754
#	130381
#	143065
#	158811
#	177439
#	189347
#	222158
#	238036
#	251486
#	264780
#	285969
#	301251
#
# Disc length: 4299 seconds
#
# Revision: 0
# Processed by: cddbd v1.5PL3 Copyright (c) Steve Scherf et al.
# Submitted via: CDex 1.51
#
DISCID=f710c913
DTITLE=Blues From The Outside - Blues From The Outside
DYEAR=1900
DGENRE=Blues
TTITLE0=Albert King/ Bad Luck Blues
TTITLE1=Buddy Guy/ Let Me Love You Baby
TTITLE2=Buddy Guy/ Mustang Sally
TTITLE3=Chet Atkins/ Brazil
TTITLE4=Unknown/ Track 5
TTITLE5=Coco Montoya/ Whats Done
TTITLE6=Coco Montoya/ Can't get my Ass in Gear
TTITLE7=Gary Primich/ You Came a Long Way From St. Louis
TTITLE8=John Mooney/ Gone To Hell
TTITLE9=Louis Prima/ Jump Jive And Wail
TTITLE10=Pinetop Perkins/ Babay What do want to do me
TTITLE11=Little Willie Littlefield/ Real Fine Mama
TTITLE12=Gary Primich/ Sade
TTITLE13=John Mayall/ Room To Move
TTITLE14=Louis Prima/ I'll Be Seeing You
TTITLE15=Louis Prima/ Buona Sera
TTITLE16=Louis Prima/ Just A Gigolo
TTITLE17=Louis Armstrong/ Mack the Knife
TTITLE18=Louis Prima/ Ain't Got Nobody
EXTD=
EXTT0=
EXTT1=
EXTT2=
EXTT3=
EXTT4=
EXTT5=
EXTT6=
EXTT7=
EXTT8=
EXTT9=
EXTT10=
EXTT11=
EXTT12=
EXTT13=
EXTT14=
EXTT15=
EXTT16=
EXTT17=
EXTT18=
PLAYORDER=
